<svg xmlns="http://www.w3.org/2000/svg" viewBox="0 0 1440 320" preserveAspectRatio="none"><path fill="#fff" fill-opacity="1" d="M0,128L16,154.7C32,181,64,235,96,245.3C128,256,160,224,192,197.3C224,171,256,149,288,154.7C320,160,352,192,384,213.3C416,235,448,245,480,213.3C512,181,544,107,576,74.7C608,43,640,53,672,96C704,139,736,213,768,224C800,235,832,181,864,176C896,171,928,213,960,197.3C992,181,1024,107,1056,112C1088,117,1120,203,1152,208C1184,213,1216,139,1248,138.7C1280,139,1312,213,1344,234.7C1376,256,1408,224,1424,208L1440,192L1440,320L1424,320C1408,320,1376,320,1344,320C1312,320,1280,320,1248,320C1216,320,1184,320,1152,320C1120,320,1088,320,1056,320C1024,320,992,320,960,320C928,320,896,320,864,320C832,320,800,320,768,320C736,320,704,320,672,320C640,320,608,320,576,320C544,320,512,320,480,320C448,320,416,320,384,320C352,320,320,320,288,320C256,320,224,320,192,320C160,320,128,320,96,320C64,320,32,320,16,320L0,320Z"></path></svg>