<svg xmlns="http://www.w3.org/2000/svg" viewBox="0 0 1440 320" preserveAspectRatio="none"><path fill="#fff" fill-opacity="1" d="M0,160L16,144C32,128,64,96,96,74.7C128,53,160,43,192,74.7C224,107,256,181,288,202.7C320,224,352,192,384,186.7C416,181,448,203,480,224C512,245,544,267,576,266.7C608,267,640,245,672,208C704,171,736,117,768,117.3C800,117,832,171,864,202.7C896,235,928,245,960,234.7C992,224,1024,192,1056,170.7C1088,149,1120,139,1152,165.3C1184,192,1216,256,1248,282.7C1280,309,1312,299,1344,245.3C1376,192,1408,96,1424,48L1440,0L1440,320L1424,320C1408,320,1376,320,1344,320C1312,320,1280,320,1248,320C1216,320,1184,320,1152,320C1120,320,1088,320,1056,320C1024,320,992,320,960,320C928,320,896,320,864,320C832,320,800,320,768,320C736,320,704,320,672,320C640,320,608,320,576,320C544,320,512,320,480,320C448,320,416,320,384,320C352,320,320,320,288,320C256,320,224,320,192,320C160,320,128,320,96,320C64,320,32,320,16,320L0,320Z"></path></svg>